<svg width="123" height="25" viewBox="0 0 123 25" fill="none"
    xmlns="http://www.w3.org/2000/svg">
    <path d="M81.4102 5.23873H83.789V6.38819C83.789 6.92295 83.7353 7.37639 83.7353 7.37639H83.789C83.789 7.37639 84.9385 4.9176 88.3331 4.9176C91.9675 4.9176 94.2664 7.80365 94.2664 12.0004C94.2664 16.3033 91.6739 19.0832 88.1456 19.0832C85.1783 19.0832 84.0026 16.8642 84.0026 16.8642H83.9489C83.9489 16.8642 84.0026 17.3452 84.0026 18.0399V24.1069H81.4102V5.23873ZM87.7446 16.8656C89.8822 16.8656 91.6464 15.1014 91.6464 12.028C91.6464 9.08817 90.0697 7.19033 87.8245 7.19033C85.793 7.19033 83.9227 8.60716 83.9227 12.0541C83.9227 14.4606 85.2582 16.8656 87.7446 16.8656Z" fill="#323241"/>
    <path d="M104.504 10.3175H105.093V10.0777C105.093 7.85874 103.837 7.11035 102.126 7.11035C100.04 7.11035 98.3575 8.41968 98.3575 8.41968L97.288 6.52184C97.288 6.52184 99.2396 4.91895 102.339 4.91895C105.76 4.91895 107.685 6.78922 107.685 10.2114V18.7648H105.28V17.4816C105.28 16.8669 105.334 16.4121 105.334 16.4121H105.28C105.28 16.4121 104.185 19.0845 100.95 19.0845C98.6249 19.0845 96.3535 17.6677 96.3535 14.9677C96.3521 10.5036 102.232 10.3175 104.504 10.3175ZM101.511 16.9992C103.702 16.9992 105.119 14.7003 105.119 12.6964V12.2691H104.451C102.499 12.2691 98.9708 12.4028 98.9708 14.8354C98.9708 15.9297 99.8267 16.9992 101.511 16.9992Z" fill="#323241"/>
    <path d="M110.571 21.5696C110.571 21.5696 111.32 22.1305 112.148 22.1305C113.19 22.1305 114.072 21.3821 114.581 20.1527L115.249 18.6022L109.583 5.23877H112.495L115.89 14.0857C116.157 14.7804 116.398 15.7162 116.398 15.7162H116.452C116.452 15.7162 116.666 14.8079 116.907 14.1133L120.194 5.23877H123L116.666 21.1961C115.837 23.2814 114.179 24.3771 112.282 24.3771C110.759 24.3771 109.662 23.5487 109.662 23.5487L110.571 21.5696Z" fill="#323241"/>
    <path d="M46.2069 4.38276H41.3238V19.5117H36.9396V4.38276H32.0303V0.533325H46.2055V4.38276H46.2069Z" fill="#323241"/>
    <path d="M54.2476 15.7836C53.9885 15.8456 53.7528 15.8773 53.5392 15.8773C52.6309 15.8773 52.1761 15.3426 52.1761 14.2731V5.47986H47.8994V15.7712C47.8994 16.9827 48.2288 17.9089 48.8876 18.5511C49.5464 19.192 50.4919 19.5131 51.7213 19.5131C52.3263 19.5131 52.9782 19.4415 53.6729 19.2995C54.0436 19.2237 54.3896 19.1314 54.7148 19.0252V15.621C54.5674 15.6844 54.4144 15.7423 54.2476 15.7836Z" fill="#323241"/>
    <path d="M62.4 15.7837C62.1408 15.8457 61.9052 15.8774 61.6915 15.8774C60.7833 15.8774 60.3284 15.3426 60.3284 14.2731V0H56.0518V15.7699C56.0518 16.9813 56.3812 17.9075 57.04 18.5498C57.6988 19.1907 58.6442 19.5118 59.8736 19.5118C60.4787 19.5118 61.1306 19.4401 61.8252 19.2982C62.196 19.2224 62.5419 19.13 62.8672 19.0239V15.6196C62.7197 15.6844 62.5667 15.7423 62.4 15.7837Z" fill="#323241"/>
    <path d="M70.8513 19.7792C69.6577 19.7792 68.5923 19.5821 67.6565 19.1907C66.7207 18.7992 65.9323 18.2686 65.2914 17.6002C64.6506 16.9317 64.164 16.1572 63.8346 15.2751C63.5052 14.393 63.3398 13.471 63.3398 12.5089C63.3398 11.5469 63.5039 10.6249 63.8346 9.74281C64.164 8.86074 64.6506 8.08616 65.2914 7.41771C65.9323 6.74927 66.7221 6.21451 67.6565 5.81344C68.591 5.41237 69.6563 5.21252 70.8513 5.21252C72.0448 5.21252 73.1061 5.41375 74.0323 5.81344C74.9584 6.21451 75.7427 6.74927 76.3849 7.41771C77.0258 8.08616 77.5165 8.86074 77.8555 9.74281C78.1932 10.6249 78.3641 11.5469 78.3641 12.5089C78.3641 13.471 78.1987 14.393 77.8693 15.2751C77.5399 16.1572 77.0548 16.9317 76.4125 17.6002C75.7716 18.2686 74.9819 18.7992 74.0474 19.1907C73.1102 19.5821 72.0448 19.7792 70.8513 19.7792ZM67.724 12.5089C67.724 13.6143 68.0176 14.5005 68.6061 15.169C69.1946 15.8374 69.943 16.1709 70.8513 16.1709C71.2964 16.1709 71.7072 16.0814 72.0807 15.9036C72.4542 15.7258 72.7794 15.4763 73.0565 15.1552C73.3321 14.834 73.5513 14.4468 73.7111 13.9919C73.871 13.5371 73.951 13.0437 73.951 12.5089C73.951 11.405 73.6574 10.5174 73.0689 9.84893C72.4804 9.18049 71.7416 8.84695 70.8499 8.84695C70.4047 8.84695 69.9899 8.93654 69.6067 9.11433C69.2236 9.29213 68.8942 9.54159 68.6185 9.86272C68.3415 10.1838 68.1237 10.5711 67.9639 11.026C67.804 11.4794 67.724 11.9742 67.724 12.5089Z" fill="#323241"/>
    <path d="M50.2507 4.70257C51.5493 4.70257 52.602 3.64986 52.602 2.35128C52.602 1.05271 51.5493 0 50.2507 0C48.9521 0 47.8994 1.05271 47.8994 2.35128C47.8994 3.64986 48.9521 4.70257 50.2507 4.70257Z" fill="#323241"/>
    <path d="M27.5531 2.8061C27.5531 1.25971 26.2644 0 24.6835 0H2.87146C1.28923 0 0.00195312 1.25971 0.00195312 2.8061V4.54407H27.5544V2.8061H27.5531Z" fill="#FF3544"/>
    <path d="M0 8.39209V16.4879C0 18.0343 1.28866 19.294 2.8695 19.294H24.6816C26.2638 19.294 27.5511 18.0343 27.5511 16.4879V8.39209H8.57957H0ZM19.5187 17.0654H12.0266H8.05721V14.7306H19.5173V17.0654H19.5187ZM24.0821 12.6908H10.6263H3.49661V10.3561H24.0821V12.6908Z" fill="#FF3544"/>
</svg>
